<svg width="120" height="145" viewBox="0 0 120 145" fill="none" xmlns="http://www.w3.org/2000/svg">
<g clip-path="url(#clip0_1_367)">
<path d="M111.379 12.2747H16.7226C13.2503 12.2747 10.4268 15.0973 10.4268 18.5685V83.4133C10.4268 86.8845 13.2503 89.7072 16.7226 89.7072H111.379C114.851 89.7072 117.675 86.8845 117.675 83.4133V18.5685C117.675 15.0973 114.851 12.2747 111.379 12.2747V12.2747Z" fill="#F2F2F2"/>
<path d="M101.109 17.2694H6.4531C2.98078 17.2694 0.157227 20.092 0.157227 23.5633V88.4081C0.157227 91.8793 2.98078 94.7019 6.4531 94.7019H101.109C104.582 94.7019 107.405 91.8793 107.405 88.4081V23.5633C107.405 20.092 104.582 17.2694 101.109 17.2694ZM106.743 69.3225C106.743 82.9737 95.6734 94.0401 82.0179 94.0401H6.4531C3.34161 94.0401 0.819252 91.5186 0.819252 88.4081V23.5633C0.819252 20.4528 3.3416 17.9312 6.45308 17.9312H101.109C104.221 17.9312 106.743 20.4528 106.743 23.5633V69.3225Z" fill="#3F3D56"/>
<path d="M13.6779 80.6492L13.1177 80.2966C13.4818 79.718 13.8576 79.1572 14.2342 78.6296L14.7731 79.0142C14.4037 79.5312 14.0354 80.0812 13.6779 80.6492H13.6779Z" fill="#CCCCCC"/>
<path d="M17.3281 75.9328L16.8542 75.4707C17.8644 74.4358 18.9276 73.5473 20.0141 72.8301L20.379 73.3824C19.3318 74.0736 18.3053 74.9317 17.3281 75.9328V75.9328ZM33.8442 71.7554C33.0537 71.7554 32.3335 71.6543 31.7943 71.5661L31.9013 70.913C32.4476 71.0023 33.1056 71.0936 33.8442 71.0936C34.4965 71.0936 35.1377 71.0221 35.8042 70.8745L35.9471 71.5208C35.2331 71.6787 34.5452 71.7554 33.8442 71.7554V71.7554ZM23.9382 71.6679L23.7391 71.0368C24.4502 70.8125 25.1869 70.6444 25.9287 70.537C26.5656 70.4449 27.1746 70.4001 27.7903 70.4001H27.831V71.062H27.7903C27.2066 71.062 26.6288 71.1045 26.0235 71.192C25.3171 71.2943 24.6153 71.4544 23.9382 71.6679H23.9382ZM39.7181 69.7553L39.2949 69.2463C40.2084 68.4877 40.8632 67.5705 41.5566 66.5992L41.8331 66.2129L42.3704 66.5997L42.0954 66.9836C41.3765 67.9907 40.6974 68.9421 39.7181 69.7553V69.7553ZM45.0272 63.6871L44.6199 63.1652C45.5122 62.4692 46.5205 61.9051 47.702 61.4409C47.9032 61.3617 48.0955 61.2911 48.2801 61.2283L48.4938 61.8545C48.3182 61.9145 48.1356 61.9815 47.9442 62.0568C46.8227 62.4974 45.8686 63.0306 45.0272 63.6871ZM53.0195 61.3884C52.7968 61.3884 52.5855 61.3863 52.3825 61.384L52.3903 60.7222C52.5978 60.7246 52.8144 60.7251 53.0436 60.7266C53.8226 60.7266 54.9076 60.7044 56.3959 60.5322L56.4722 61.1895C54.9348 61.3675 53.8326 61.3861 53.0195 61.3884ZM60.4993 60.5217L60.368 59.8731C61.5571 59.6327 62.9405 59.3465 64.3098 58.9933L64.4753 59.6342C63.0903 59.9914 61.6968 60.2796 60.4993 60.5217ZM68.3751 58.3795L68.1274 57.7657C69.4549 57.2307 70.6075 56.6274 71.6512 55.921L72.0223 56.469C70.9394 57.2019 69.7463 57.8269 68.3751 58.3795ZM75.064 53.6505L74.5268 53.2637C74.7115 53.0074 74.8712 52.7575 75.0255 52.5157C75.4813 51.8022 75.9528 51.0643 77.0753 50.1585L77.1539 50.0957L77.5641 50.615L77.4912 50.6733C76.4525 51.5116 76.0305 52.1724 75.5835 52.872C75.4243 53.1213 75.2594 53.3792 75.064 53.6505ZM81.003 48.6869L80.7615 48.0706C81.9414 47.6082 83.274 47.2361 84.7224 46.9645L84.8446 47.615C83.437 47.879 82.1444 48.2396 81.003 48.6869V48.6869Z" fill="#CCCCCC"/>
<path d="M88.8912 47.1289L88.8499 46.4684C89.4931 46.4282 90.1657 46.4017 90.8489 46.3894L90.8608 47.0512C90.1873 47.0632 89.5246 47.0894 88.8912 47.1289Z" fill="#CCCCCC"/>
<path d="M21.0602 24.4407H11.772C11.3052 24.4407 10.9246 24.8212 10.9246 25.2878C10.9246 25.7577 11.3052 26.1382 11.772 26.1382H21.0602C21.5269 26.1382 21.9076 25.7577 21.9076 25.2878C21.9076 24.8212 21.5269 24.4407 21.0602 24.4407Z" fill="#E6E6E6"/>
<path d="M36.6178 24.4407H27.3296C26.8629 24.4407 26.4822 24.8212 26.4822 25.2878C26.4822 25.7577 26.8628 26.1382 27.3296 26.1382H36.6178C37.0845 26.1382 37.4652 25.7577 37.4652 25.2878C37.4652 24.8212 37.0845 24.4407 36.6178 24.4407Z" fill="#E6E6E6"/>
<path d="M52.1754 24.4407H42.8872C42.4205 24.4407 42.0398 24.8212 42.0398 25.2878C42.0398 25.7577 42.4205 26.1382 42.8872 26.1382H52.1754C52.6421 26.1382 53.0228 25.7577 53.0228 25.2878C53.0228 24.8212 52.6421 24.4407 52.1754 24.4407Z" fill="#E6E6E6"/>
<path d="M95.3235 80.142H10.9153V80.8038H95.3235V80.142Z" fill="#E6E6E6"/>
<path d="M90.8647 31.8294C84.8568 31.9849 80.3749 33.752 77.5348 37.0743C76.4855 38.3053 76.0585 39.2748 75.6083 40.3007C75.1614 41.3132 74.7046 42.3556 73.6421 43.7156V42.5905C74.3008 41.6243 74.655 40.8169 75.0025 40.0326C75.4726 38.9605 75.9195 37.9479 77.0317 36.6474C79.9975 33.1729 84.6449 31.3297 90.8448 31.1676L90.8647 31.8294V31.8294Z" fill="#CCCCCC"/>
<path d="M75.6083 40.3007C75.1615 41.3133 74.7047 42.3556 73.6421 43.7157C73.5163 43.8778 73.3806 44.0466 73.235 44.222C69.4018 48.7785 64.2811 50.2743 60.1633 51.4788C59.9051 51.5549 59.6535 51.6244 59.4086 51.6905C55.7476 52.6833 53.7416 52.6469 52.2488 52.6237C50.7493 52.5972 49.7595 52.5807 47.9886 53.5932C44.7414 55.443 43.4107 58.1499 42.1231 60.7674C40.7957 63.4609 39.5445 66.0056 36.3535 67.2002C34.139 68.0275 32.5833 67.6171 30.9382 67.187C29.5247 66.813 26.9773 57.6092 24.7217 56.267C20.0644 57.2432 17.2342 72.4583 13.7023 80.6053L13.0933 80.3406C16.7179 71.9884 19.7036 56.6442 24.5827 55.6184C26.7575 55.1618 29.6207 66.1545 31.107 66.545C32.6495 66.952 34.1026 67.3326 36.1218 66.5781C39.0678 65.4795 40.2065 63.1598 41.5272 60.4762C42.7983 57.8951 44.2382 54.9698 47.6576 53.0175C49.5874 51.9156 50.7095 51.9354 52.2587 51.9619C53.735 51.9884 55.7277 52.0214 59.4086 51.0056C59.5939 50.9526 59.7826 50.8997 59.9779 50.8434C64.0097 49.6654 69.0245 48.1995 72.7252 43.7984C73.0893 43.3649 73.3905 42.9645 73.6421 42.5906C74.3008 41.6243 74.655 40.8169 75.0026 40.0326C75.4726 38.9605 76.0585 39.2749 75.6083 40.3007V40.3007Z" fill="#E92742"/>
<path d="M40.3095 116.006C40.0474 115.094 39.5987 114.316 39.0645 113.761L37.1235 104.916L32.8928 105.952L35.3172 114.813C35.1578 115.562 35.1897 116.457 35.4517 117.37C36.0503 119.453 37.623 120.837 38.9645 120.461C40.3059 120.084 40.9081 118.09 40.3095 116.006L40.3095 116.006Z" fill="#FFB6B6"/>
<path d="M39.7241 57.9842C39.7241 57.9842 33.0428 57.8474 31.3439 62.7113C29.7976 67.1385 27.9645 79.3016 28.9554 80.0044L33.1734 109.947L39.1882 109.121L37.6445 73.1942L39.7241 57.9842Z" fill="#E92742"/>
<path d="M70.6632 113.564L69.4781 145H53.755L53.1195 130.913L50.3257 145H33.4739L35.5758 120.784L37.7472 115.691L39.2169 112.24L70.6632 113.564Z" fill="#2F2E41"/>
<path d="M58.0846 52.0148L47.1611 51.353L43.52 55.9857L35.5757 58.9639L39.2168 94.3711L37.5618 115.549C37.5618 115.549 60.7327 134.08 70.663 113.564L68.0149 88.7457L68.677 59.9566L61.0637 56.6476L58.0846 52.0148Z" fill="#E92742"/>
<path d="M79.1138 43.9609C79.2324 45.1081 79.0819 46.187 78.7353 47.052L80.5549 57.9098L75.3614 58.6242L74.0747 47.5332C73.5586 46.7572 73.1907 45.7319 73.0722 44.5846C72.8015 41.9638 73.9344 39.6995 75.6028 39.5273C77.2711 39.355 78.8431 41.34 79.1138 43.9609V43.9609H79.1138Z" fill="#FFB6B6"/>
<path d="M70.0679 61.1998C68.2775 58.1406 63.8364 57.8522 61.8473 60.7861C61.3035 61.5882 61.455 62.4897 61.3252 63.5729C60.774 68.1713 69.5887 81.7596 75.6879 83.3241C76.4883 83.5294 76.9442 84.3925 77.752 84.5661H77.752C80.1451 85.0803 82.3732 83.1814 82.2441 80.7379L80.5873 49.3982L73.627 51.7715L74.0725 68.0424L70.0679 61.1998L70.0679 61.1998Z" fill="#E92742"/>
<path d="M53.7563 50.4967C59.0703 50.4967 63.3781 46.1902 63.3781 40.8779C63.3781 35.5656 59.0703 31.2592 53.7563 31.2592C48.4423 31.2592 44.1345 35.5656 44.1345 40.8779C44.1345 46.1902 48.4423 50.4967 53.7563 50.4967Z" fill="#FFB6B6"/>
<path d="M62.7187 33.8148C62.6359 33.8347 63.9853 32.5199 64.0428 32.4912C65.3668 31.8294 64.0063 38.2986 63.0497 38.1166C60.6962 37.6699 59.68 36.7831 58.7664 38.9968C58.5115 39.6123 58.3526 40.3073 57.8561 40.7474C57.1742 41.3463 56.0422 41.2967 55.4861 42.0114C55.0392 42.5872 55.1683 43.4343 55.4993 44.0829C55.8303 44.7348 56.3335 45.2874 56.6347 45.9525C56.9723 46.7004 55.5324 49.0796 54.9829 50.4165V50.4198L54.9797 50.4276C54.8337 50.7783 54.4867 49.7682 54.1204 49.6673C53.6821 49.5467 53.0363 50.5814 52.3381 50.3933C52.3348 50.3933 52.3315 50.39 52.3282 50.39C51.6629 50.2047 50.9214 50.0062 50.1866 49.8076H50.1832C48.1144 49.2451 47.5914 50.0525 47.4921 50.0293L46.2078 48.6858C45.767 48.365 45.8168 47.3293 45.506 47.0512C45.2519 46.8237 44.6182 47.3493 44.4314 47.1307C43.5157 46.0585 43.305 44.986 42.7652 42.8685C42.272 40.9327 41.2492 35.1385 43.3511 34.877C45.3339 34.6289 43.8841 31.8691 45.8801 31.9717C45.7609 31.4687 45.9827 30.9293 46.3435 30.5587C46.701 30.1848 47.1776 29.9531 47.6576 29.7546C50.0244 28.7883 49.6305 27.9578 52.1263 28.5203C52.3745 28.1729 55.9793 28.4045 56.4295 28.5203C56.4626 28.5269 55.3139 28.8016 57.0915 28.5203C57.0253 28.9273 58.1507 29.106 58.0845 29.513C58.3328 29.1788 61.0007 31.0981 61.0636 31.4985C61.1464 31.9982 60.3917 31.7433 60.8948 31.8194C61.1927 31.8658 61.7025 32.4713 61.6528 32.7725C61.868 32.4813 62.0832 32.1934 62.3016 31.9022C62.3413 31.9055 62.3777 31.9121 62.4175 31.9187C63.4238 32.1106 62.2701 35.3992 62.3116 34.3741C62.3877 32.4912 63.7217 33.5931 62.7187 33.8148Z" fill="#2F2E41"/>
<path d="M99.5802 85.0102C99.6543 85.1927 99.9102 85.1927 99.9843 85.0101C100.501 83.7363 101.237 82.3098 102.037 81.2197C102.166 81.0451 101.989 80.8119 101.785 80.8856L100.069 81.5061V70.8884H99.4951V81.5061L97.7788 80.8855C97.5751 80.8118 97.3985 81.0451 97.5266 81.2196C98.327 82.3098 99.063 83.7363 99.5802 85.0102Z" fill="#3F3D56"/>
<path d="M110.832 95.9425C110.776 96.1315 110.977 96.2906 111.148 96.1936C112.345 95.5175 113.809 94.8579 115.114 94.5018C115.323 94.4448 115.33 94.1523 115.124 94.0834L113.395 93.5026L120 85.188L119.55 84.8309L112.945 93.1455L111.987 91.5925C111.873 91.4082 111.59 91.481 111.582 91.6973C111.53 93.0487 111.219 94.6234 110.832 95.9425Z" fill="#3F3D56"/>
<path d="M105.458 103.028H94.2962C93.6031 103.028 93.0393 102.464 93.0393 101.771C91.5635 97.4592 91.5926 93.2337 93.0393 89.0901C93.0393 88.3972 93.6031 87.8336 94.2962 87.8336H105.458C106.151 87.8336 106.715 88.3972 106.715 89.0901V101.771C106.715 102.464 106.151 103.028 105.458 103.028Z" fill="#E6E6E6"/>
<path d="M96.6878 88.208C94.8796 88.208 93.4138 89.6733 93.4138 91.4809V101.502C93.4138 102.138 93.9294 102.654 94.5653 102.654H100.738C103.832 102.654 106.341 100.146 106.341 97.0527V89.3591C106.341 88.7234 105.825 88.208 105.189 88.208H96.6878Z" fill="white"/>
<path d="M102.477 91.8932H97.2509C97.1192 91.8932 97.012 91.7861 97.012 91.6544C97.012 91.5226 97.1192 91.4155 97.2509 91.4155H102.477C102.609 91.4155 102.716 91.5226 102.716 91.6544C102.716 91.7861 102.609 91.8932 102.477 91.8932Z" fill="#E6E6E6"/>
<path d="M102.477 96.9867H97.2509C97.1192 96.9867 97.012 96.8796 97.012 96.7479C97.012 96.6162 97.1192 96.509 97.2509 96.509H102.477C102.609 96.509 102.716 96.6162 102.716 96.7479C102.716 96.8796 102.609 96.9867 102.477 96.9867Z" fill="#E6E6E6"/>
<path d="M105.281 94.4417H94.4465C94.3147 94.4417 94.2075 94.3345 94.2075 94.2028C94.2075 94.0711 94.3147 93.964 94.4465 93.964H105.281C105.413 93.964 105.52 94.0711 105.52 94.2028C105.52 94.3345 105.413 94.4417 105.281 94.4417Z" fill="#E6E6E6"/>
<path d="M105.409 99.0578H100.888C100.756 99.0578 100.649 98.9506 100.649 98.8189C100.649 98.6872 100.756 98.5801 100.888 98.5801H105.409C105.541 98.5801 105.648 98.6872 105.648 98.8189C105.648 98.9506 105.541 99.0578 105.409 99.0578Z" fill="#E6E6E6"/>
<path d="M4.1255 8.18082C6.40396 8.18082 8.25101 6.37325 8.25101 4.14351C8.25101 1.91377 6.40396 0.106201 4.1255 0.106201C1.84705 0.106201 0 1.91377 0 4.14351C0 6.37325 1.84705 8.18082 4.1255 8.18082Z" fill="#E92742"/>
<path d="M37.1979 2.76237H14.992C14.2302 2.76237 13.6104 2.14275 13.6104 1.38118C13.6104 0.619622 14.2302 0 14.992 0H37.1979C37.9597 0 38.5796 0.619622 38.5796 1.38118C38.5796 2.14275 37.9597 2.76237 37.1979 2.76237Z" fill="#F2F2F2"/>
<path d="M54.5276 7.43717H14.992C14.2302 7.43717 13.6104 6.81755 13.6104 6.05599C13.6104 5.29443 14.2302 4.6748 14.992 4.6748H54.5276C55.2894 4.6748 55.9092 5.29443 55.9092 6.05599C55.9092 6.81755 55.2894 7.43717 54.5276 7.43717Z" fill="#F2F2F2"/>
</g>
<defs>
<clipPath id="clip0_1_367">
<rect width="120" height="145" fill="white"/>
</clipPath>
</defs>
</svg>
