<svg width="332" height="222" viewBox="0 0 332 222" fill="none" xmlns="http://www.w3.org/2000/svg">
<g clip-path="url(#clip0_1_167)">
<path d="M172.905 57.748C186.499 69.1185 201.654 59.5988 216.179 58.8715C222.914 58.5342 229.637 60.1574 236.275 61.3684C242.577 62.5177 248.855 64.1895 254.615 67.0405C260.894 70.0391 266.235 74.6942 270.062 80.5038C270.822 81.6912 271.968 80.8144 271.96 79.395C271.868 64.3219 265.348 65.5425 258.541 66.6541C252.069 67.711 246.568 61.2915 240.181 59.9099C233.499 58.5658 226.745 57.6037 219.952 57.0283C212.589 56.2975 205.207 55.8017 197.806 55.5409C189.509 55.2483 181.208 55.2517 172.905 55.551C171.494 55.6011 171.487 57.7983 172.905 57.7479L172.905 57.748Z" fill="#3F3D56"/>
<path d="M127.052 179.007C127.246 179.215 127.351 179.49 127.346 179.775C127.341 180.059 127.226 180.331 127.025 180.532C126.823 180.733 126.552 180.849 126.267 180.854C125.982 180.859 125.707 180.753 125.498 180.559C116.516 172.862 107.533 165.171 98.5508 157.484C98.5405 157.472 98.5281 157.462 98.5142 157.454C97.8904 156.986 97.3003 156.475 96.7485 155.924C88.3888 154.95 79.2012 151.727 70.4971 150.329C62.8114 151.471 55.1478 152.833 47.4401 153.844C40.7247 154.777 33.9545 155.261 27.1746 155.294C21.6576 155.265 23.2538 141.128 18.2496 138.521C13.0477 135.811 2.61562 144.58 1.28216 139.102C0.623333 136.298 0.194522 133.445 0 130.571V112.709C0.710685 104.932 13.099 107.331 18.9823 101.905C27.8109 93.7611 30.8086 74.6576 42.1063 74.4305C55.5698 74.1467 69.0376 74.7362 82.4248 76.1954C93.3416 77.3964 104.822 78.5609 114.919 83.2111C119.249 85.2104 123.33 96.7738 126.311 100.531C129.715 104.919 131.641 110.272 131.814 115.822C132.349 127.605 126.986 138.385 124.048 149.509C121.498 159.139 120.062 170.812 127.052 179.007Z" fill="#F2F2F2"/>
<path d="M99.5716 158.612C108.678 166.414 117.786 174.215 126.896 182.014C127.104 182.208 127.38 182.314 127.665 182.309C127.95 182.304 128.221 182.189 128.423 181.987C128.625 181.786 128.74 181.514 128.745 181.229C128.75 180.944 128.644 180.669 128.45 180.46C121.461 172.272 122.897 160.598 125.444 150.963C128.386 139.838 133.749 129.062 133.212 117.281C133.042 111.73 131.115 106.376 127.708 101.988C124.629 98.2964 120.728 95.3752 116.318 93.4582C106.223 88.8079 94.744 87.6384 83.8223 86.4404C70.4368 84.9799 56.9706 84.3895 43.5085 84.673C32.2075 84.9053 18.9878 85.1116 10.1597 93.2574C2.11994 100.676 1.02182 112.342 1.09935 122.642C1.14427 128.609 1.25881 134.739 2.67807 140.563C4.01221 146.037 6.90541 151.369 12.109 154.078C17.1141 156.684 23.0603 156.724 28.5721 156.751C35.352 156.722 42.1222 156.237 48.8366 155.297C62.2752 153.54 75.5855 150.702 89.1329 149.845C92.448 149.635 95.7731 149.541 99.0946 149.611C100.51 149.64 100.509 147.443 99.0946 147.414C85.9223 147.139 72.8854 149.4 59.9252 151.459C47.3895 153.45 34.5748 155.328 21.8507 154.32C19.0613 154.19 16.3186 153.555 13.7553 152.448C11.2797 151.272 9.18495 149.424 7.7106 147.115C4.39804 141.958 3.77041 135.499 3.48427 129.483C3.15784 124.277 3.20619 119.054 3.62894 113.855C4.11713 108.814 5.29281 103.7 7.97842 99.3484C14.1045 89.421 26.4903 85.29 37.0613 87.0734C48.9651 89.0817 58.0707 98.5924 76.2352 87.9044C81.9372 84.5494 89.4091 89.2183 95.9517 90.2049C100.841 90.8788 105.664 91.9698 110.368 93.466C114.893 94.8465 119.109 97.0867 122.786 100.064C126.634 103.317 129.312 107.737 130.414 112.653C132.937 123.972 127.936 135.271 124.632 145.864C121.686 155.307 119.173 166.397 123.139 175.925C124.064 178.139 125.332 180.194 126.896 182.014L128.45 180.46C119.343 172.658 110.235 164.858 101.126 157.059C100.057 156.143 98.4954 157.69 99.5716 158.612H99.5716Z" fill="#E6E6E6"/>
<path d="M60.7674 107.496H27.6358C27.3318 107.496 27.0402 107.376 26.8252 107.161C26.6103 106.946 26.4895 106.654 26.4895 106.351C26.4895 106.047 26.6103 105.755 26.8252 105.54C27.0402 105.326 27.3318 105.205 27.6358 105.205H60.7674C61.0714 105.205 61.3629 105.326 61.5779 105.54C61.7929 105.755 61.9137 106.047 61.9137 106.351C61.9137 106.654 61.7929 106.946 61.5779 107.161C61.3629 107.376 61.0714 107.496 60.7674 107.496Z" fill="white"/>
<path d="M60.7674 131.929H27.6358C27.4853 131.929 27.3362 131.9 27.1971 131.842C27.0581 131.784 26.9317 131.7 26.8252 131.594C26.7188 131.487 26.6344 131.361 26.5767 131.222C26.5191 131.083 26.4895 130.934 26.4895 130.783C26.4895 130.633 26.5191 130.484 26.5767 130.345C26.6344 130.206 26.7188 130.08 26.8252 129.973C26.9317 129.867 27.0581 129.782 27.1971 129.725C27.3362 129.667 27.4853 129.638 27.6358 129.638H60.7674C61.0714 129.638 61.3629 129.758 61.5779 129.973C61.7929 130.188 61.9137 130.48 61.9137 130.783C61.9137 131.087 61.7929 131.379 61.5779 131.594C61.3629 131.808 61.0714 131.929 60.7674 131.929Z" fill="white"/>
<path d="M87.6754 119.721H27.6358C27.3318 119.721 27.0402 119.6 26.8252 119.385C26.6103 119.17 26.4895 118.879 26.4895 118.575C26.4895 118.271 26.6103 117.98 26.8252 117.765C27.0402 117.55 27.3318 117.429 27.6358 117.429H87.6754C87.9795 117.429 88.271 117.55 88.486 117.765C88.701 117.98 88.8217 118.271 88.8217 118.575C88.8217 118.879 88.701 119.17 88.486 119.385C88.271 119.6 87.9795 119.721 87.6754 119.721Z" fill="white"/>
<path d="M163.685 234.664C163.879 234.872 163.984 235.147 163.979 235.432C163.974 235.716 163.859 235.988 163.658 236.189C163.456 236.39 163.185 236.506 162.9 236.511C162.615 236.516 162.34 236.41 162.131 236.216C153.149 228.519 144.166 220.827 135.184 213.14C135.174 213.129 135.161 213.119 135.147 213.111C134.524 212.643 133.933 212.132 133.382 211.581C125.022 210.607 115.834 207.384 107.13 205.986C99.4446 207.128 90.3156 215.813 82.6079 216.824C75.8925 217.757 69.1223 218.242 62.3424 218.274C56.8254 218.245 58.4216 200.446 53.4174 197.839C48.2155 195.13 39.2488 200.237 37.9153 194.759C37.2339 191.969 33.8697 189.106 33.6499 186.228V168.366C34.3606 160.589 39.5125 152.885 45.3958 147.458C54.2244 139.315 67.4417 139.102 78.7394 138.875C92.203 138.591 105.671 139.181 119.058 140.64C129.975 141.841 141.456 143.006 151.552 147.656C155.962 149.575 159.863 152.496 162.945 156.188C166.348 160.576 168.274 165.929 168.447 171.479C168.982 183.262 163.619 194.041 160.681 205.165C158.131 214.796 156.695 226.469 163.685 234.664Z" fill="#F2F2F2"/>
<path d="M136.205 214.269C145.312 222.071 154.42 229.872 163.529 237.671C163.738 237.865 164.013 237.971 164.298 237.966C164.583 237.961 164.855 237.845 165.057 237.644C165.258 237.443 165.373 237.171 165.378 236.886C165.383 236.601 165.278 236.326 165.083 236.117C158.094 227.929 159.53 216.255 162.078 206.62C165.02 195.494 170.383 184.718 169.846 172.938C169.676 167.387 167.749 162.033 164.342 157.645C161.262 153.953 157.362 151.032 152.952 149.115C142.856 144.465 131.378 143.295 120.456 142.097C107.07 140.637 93.6041 140.046 80.1421 140.33C68.8411 140.562 55.6213 140.768 46.7933 148.914C38.7535 156.333 37.6554 167.999 37.7329 178.299C37.7778 184.266 37.8924 190.395 39.3116 196.219C40.6458 201.694 43.539 207.026 48.7425 209.735C53.7476 212.34 59.6938 212.381 65.2056 212.408C71.9855 212.379 78.7557 211.893 85.4702 210.954C98.9088 209.197 112.219 206.359 125.766 205.501C129.082 205.292 132.407 205.198 135.728 205.268C137.143 205.297 137.143 203.1 135.728 203.071C122.556 202.795 109.519 205.056 96.5587 207.115C84.023 209.107 71.2083 210.985 58.4842 209.977C55.6948 209.846 52.9522 209.212 50.3889 208.105C47.9132 206.929 45.8185 205.081 44.3441 202.771C41.0316 197.615 40.404 191.156 40.1178 185.14C39.7914 179.934 39.8397 174.711 40.2625 169.512C40.7507 164.471 41.9264 159.357 44.612 155.005C50.738 145.078 64.7043 136.894 73.6948 142.73C83.9668 149.399 97.1042 149.687 112.869 143.561C119.036 141.165 126.043 144.875 132.585 145.862C137.475 146.536 142.298 147.627 147.001 149.123C151.526 150.503 155.743 152.743 159.419 155.72C163.267 158.973 165.946 163.394 167.047 168.309C169.57 179.629 164.57 190.928 161.265 201.521C158.319 210.964 155.806 222.053 159.773 231.581C160.698 233.795 161.965 235.85 163.529 237.671L165.083 236.117C155.977 228.315 146.869 220.515 137.759 212.715C136.691 211.8 135.129 213.347 136.205 214.269H136.205Z" fill="#E6E6E6"/>
<path d="M97.4007 163.153H64.2691C63.9651 163.153 63.6735 163.032 63.4585 162.817C63.2436 162.603 63.1228 162.311 63.1228 162.007C63.1228 161.703 63.2436 161.412 63.4585 161.197C63.6735 160.982 63.9651 160.862 64.2691 160.862H97.4007C97.7047 160.862 97.9962 160.982 98.2112 161.197C98.4262 161.412 98.547 161.703 98.547 162.007C98.547 162.311 98.4262 162.603 98.2112 162.817C97.9962 163.032 97.7047 163.153 97.4007 163.153Z" fill="white"/>
<path d="M97.4007 187.586H64.2691C63.9651 187.586 63.6735 187.465 63.4585 187.25C63.2436 187.035 63.1228 186.744 63.1228 186.44C63.1228 186.136 63.2436 185.845 63.4585 185.63C63.6735 185.415 63.9651 185.294 64.2691 185.294H97.4007C97.7047 185.294 97.9962 185.415 98.2112 185.63C98.4262 185.845 98.547 186.136 98.547 186.44C98.547 186.744 98.4262 187.035 98.2112 187.25C97.9962 187.465 97.7047 187.586 97.4007 187.586Z" fill="white"/>
<path d="M124.309 175.377H64.2691C63.9651 175.377 63.6735 175.257 63.4585 175.042C63.2436 174.827 63.1228 174.536 63.1228 174.232C63.1228 173.928 63.2436 173.636 63.4585 173.422C63.6735 173.207 63.9651 173.086 64.2691 173.086H124.309C124.613 173.086 124.904 173.207 125.119 173.422C125.334 173.636 125.455 173.928 125.455 174.232C125.455 174.536 125.334 174.827 125.119 175.042C124.904 175.257 124.613 175.377 124.309 175.377Z" fill="white"/>
<path d="M242.491 128.717L262.971 165.38C262.971 165.38 262.116 240.783 264.838 243.58C267.56 246.377 270.024 248.885 267.56 248.863C265.096 248.84 265.891 266.678 265.891 266.678L220.465 301.83L209.475 293.042L237.046 259.026L221.82 189.399C221.82 189.399 210.881 255.244 208.909 257.215C206.938 259.185 205.749 259.171 207.822 261.149C209.895 263.127 207.822 267.599 207.822 267.599L186.21 312.433L174.488 310.955C174.488 310.955 176.52 274.354 183.597 258.641V184.387C183.064 190.754 207.997 126.317 192.75 131.153C197.574 129.623 242.491 128.717 242.491 128.717Z" fill="#2F2E41"/>
<path d="M233.096 41.344H216.165L213.768 50.9278L200.75 54.5259C200.75 54.5259 194.311 97.2058 199.719 100.648C205.127 104.091 201.356 114.86 201.356 114.86C201.356 114.86 187.889 129.397 189.505 131.551C191.121 133.705 194.4 130.428 190.606 134.22C186.812 138.012 184.657 137.474 185.734 138.551C186.4 139.234 186.917 140.048 187.25 140.942L182.604 153.035C182.604 153.035 207.282 157.935 219.671 150.935C232.061 143.935 259.534 157.396 259.534 157.396C259.534 157.396 258.121 150.329 256.942 149.286C255.763 148.243 253.015 150.88 254.928 147.407C256.841 143.935 258.457 145.55 256.841 143.935C255.225 142.32 248.222 120.782 248.222 120.782C248.222 120.782 242.835 108.937 248.76 104.091C254.686 99.2451 256.942 83.3506 256.942 83.3506L249.839 54.5259L237.987 51.8628L233.096 41.344Z" fill="#E6E6E6"/>
<path d="M166.075 151.388L170.142 135.096L161.155 131.476L157.469 148.853C156.628 149.475 155.977 150.319 155.59 151.291C155.203 152.262 155.094 153.322 155.277 154.352C155.459 155.381 155.925 156.34 156.623 157.119C157.32 157.898 158.221 158.468 159.225 158.763C160.228 159.059 161.294 159.069 162.303 158.792C163.312 158.515 164.223 157.962 164.935 157.196C165.647 156.43 166.131 155.48 166.332 154.454C166.534 153.428 166.445 152.366 166.075 151.388V151.388Z" fill="#FFB6B6"/>
<path d="M205.575 53.437L205.307 53.3908C202.812 52.9624 200.25 53.1482 197.843 53.9323C195.436 54.7163 193.257 56.0749 191.493 57.8904C186.89 62.6241 166.342 97.8277 167.081 103.711C167.771 109.198 168.036 107.977 165.526 110.779C163.016 113.58 162.061 109.314 162.022 115.147C161.984 120.979 164.213 120.929 161.843 122.355C159.473 123.781 157.906 122.787 158.339 126.722C158.772 130.658 158.11 131.702 157.969 133.077C157.829 134.452 154.427 143.277 154.427 143.277C154.427 143.277 164.441 145.965 168.479 149.99C168.479 149.99 168.938 140.031 170.977 139.127C173.016 138.223 174.914 138.694 174.341 136.135C173.768 133.575 170.825 132.441 174.43 132.531C178.036 132.62 183.605 113.455 183.605 113.455L207.687 69.5379L205.575 53.437Z" fill="#E6E6E6"/>
<path d="M259.921 159.458L260.644 142.683L270.289 141.759L268.893 159.468C269.523 160.302 269.908 161.296 270.003 162.338C270.099 163.379 269.902 164.426 269.435 165.362C268.968 166.297 268.249 167.084 267.359 167.634C266.469 168.184 265.444 168.474 264.398 168.473C263.351 168.472 262.326 168.179 261.438 167.628C260.549 167.076 259.832 166.288 259.366 165.351C258.901 164.415 258.707 163.367 258.805 162.326C258.903 161.285 259.289 160.292 259.921 159.458Z" fill="#FFB6B6"/>
<path d="M249.839 54.3315L250.109 54.3633C252.623 54.6598 255.027 55.5643 257.112 56.9985C259.198 58.4327 260.902 60.3534 262.078 62.5943C265.149 68.4386 274.864 108.022 272.485 113.454C270.267 118.52 270.359 117.275 271.971 120.673C273.583 124.071 275.71 120.25 274.092 125.854C272.474 131.458 270.35 130.778 272.218 132.817C274.086 134.856 275.87 134.348 274.339 137.999C272.807 141.65 273.146 142.839 272.89 144.197C272.634 145.556 273.393 154.983 273.393 154.983C273.393 154.983 263.027 154.722 258.013 157.436C258.013 157.436 260.398 147.756 258.7 146.311C257.001 144.866 255.047 144.78 256.323 142.488C257.599 140.196 260.743 139.943 257.26 139.007C253.777 138.07 253.875 118.113 253.875 118.113L243.245 69.1726L249.839 54.3315Z" fill="#E6E6E6"/>
<path d="M186.161 30.0364C186.027 35.8128 188.186 41.4061 191.289 46.3189C192.326 43.4663 193.777 40.7819 195.597 38.3523C194.725 43.7352 195.653 49.2551 198.237 54.0577C198.328 54.1228 198.423 54.1833 198.52 54.2388C201.049 55.7594 204.255 56.3753 206.991 55.2771C201.338 49.1867 200.619 39.0958 205.358 32.2645C206.7 30.3261 208.435 28.6117 209.266 26.4057C210.578 22.886 209.317 19.0107 208.521 15.341C207.777 11.9256 207.647 7.86132 209.939 5.35829C209.694 5.00849 209.361 4.73006 208.973 4.55151C208.585 4.37296 208.156 4.30073 207.731 4.3422C206.318 4.54176 205.289 5.76971 204.634 7.03443C203.979 8.2991 203.547 9.70082 202.633 10.7931C200.942 12.8378 198.062 13.3211 195.636 14.3987C189.758 17.0154 186.302 23.6088 186.161 30.0364Z" fill="#2F2E41"/>
<path d="M235.635 26.7337C235.299 25.5587 237.614 32.7412 236.497 32.8709C231.409 33.4543 224.425 36.4915 220.881 37.9084C220.721 37.8899 220.562 37.8714 220.407 37.8482C220.027 37.8065 219.656 37.7463 219.29 37.6769C211.039 36.1164 207.865 23.4472 207.865 23.3315C207.865 22.7619 209.233 7.11895 211.387 6.88743C211.953 6.82606 212.522 6.79514 213.091 6.79481H218.437C219.543 6.55654 220.665 6.3941 221.793 6.30862H221.802C232.565 5.48901 241.051 12.0458 240.258 20.0241C240.253 20.0334 240.244 20.0426 240.239 20.0519C240.009 20.3946 239.807 20.7187 239.629 21.0289C239.455 21.3207 239.31 21.5985 239.183 21.8624C238.202 23.8998 240.724 26.4636 239.052 26.9421C236.828 27.5785 244.9 48.497 236.098 48.497C240.38 49.7137 236.561 29.975 235.635 26.7337Z" fill="#2F2E41"/>
<path d="M226.027 39.0078C233.018 39.0078 238.685 33.3436 238.685 26.3563C238.685 19.3691 233.018 13.7048 226.027 13.7048C219.037 13.7048 213.37 19.3691 213.37 26.3563C213.37 33.3436 219.037 39.0078 226.027 39.0078Z" fill="#FFB6B6"/>
<path d="M240.258 20.7142C240.046 20.8253 239.84 20.9272 239.629 21.0291C239.408 21.1356 239.187 21.2421 238.967 21.3393C234.729 23.261 231.279 23.474 229.185 20.7142C229.129 19.2621 228.803 17.8331 228.223 16.5005C228.326 17.9897 227.933 19.4711 227.106 20.7142H222.891C218.55 23.5944 216.32 23.8954 219.334 33.3508C220.174 35.9856 223.514 51.3171 222.2 53.5907C221.82 53.549 217.775 36.7562 217.409 36.6868C209.158 35.1263 203.915 21.5385 204.586 20.7698C204.583 18.5839 205.086 16.427 206.055 14.4677C207.282 11.9854 209.194 9.90618 211.566 8.47586C212.979 7.79074 214.453 7.23737 215.968 6.82277C216.006 6.8135 216.039 6.80422 216.076 6.79498C216.541 6.66995 217.015 6.55419 217.489 6.45694C218.468 6.25025 219.459 6.10029 220.455 6.0078C220.526 6.00317 220.596 5.99854 220.662 5.99854C221.06 5.99947 221.45 6.10656 221.793 6.30878C221.798 6.30878 221.798 6.3134 221.802 6.3134C222.047 6.45643 222.261 6.64693 222.431 6.87369C222.731 7.25523 222.893 7.72679 222.891 8.21192H227.585C227.759 8.21192 227.932 8.21654 228.106 8.22578C231.238 8.33279 234.218 9.60437 236.462 11.7917C238.706 13.979 240.053 16.9246 240.239 20.0521C240.253 20.2743 240.258 20.4919 240.258 20.7142Z" fill="#2F2E41"/>
<path d="M212.583 16.6698C217.188 16.6698 220.922 12.9381 220.922 8.33489C220.922 3.73166 217.188 0 212.583 0C207.978 0 204.244 3.73166 204.244 8.33489C204.244 12.9381 207.978 16.6698 212.583 16.6698Z" fill="#2F2E41"/>
<path d="M291.817 259.459C292.157 259.474 292.494 259.385 292.782 259.203C293.071 259.02 293.296 258.754 293.427 258.44C293.559 258.125 293.59 257.778 293.518 257.445C293.445 257.112 293.272 256.809 293.022 256.578L292.908 256.125C292.923 256.089 292.938 256.053 292.953 256.017C293.296 255.207 293.871 254.516 294.606 254.032C295.34 253.547 296.201 253.29 297.081 253.294C297.961 253.297 298.821 253.56 299.552 254.05C300.282 254.54 300.852 255.235 301.189 256.047C302.536 259.29 304.251 262.539 304.674 265.967C304.86 267.483 304.781 269.019 304.442 270.508C307.606 263.61 309.249 256.112 309.259 248.523C309.26 246.619 309.154 244.716 308.942 242.823C308.767 241.272 308.524 239.732 308.213 238.202C306.518 229.904 302.877 222.126 297.59 215.508C295.031 214.112 292.961 211.966 291.66 209.359C291.189 208.421 290.856 207.421 290.671 206.388C290.96 206.426 291.76 202.032 291.542 201.762C291.944 201.152 292.664 200.849 293.103 200.253C295.289 197.292 298.299 197.809 299.871 201.833C303.228 203.527 303.26 206.336 301.2 209.037C299.89 210.756 299.71 213.081 298.56 214.921C298.678 215.073 298.801 215.219 298.919 215.371C301.082 218.15 302.967 221.135 304.547 224.282C304.163 220.756 304.621 217.19 305.885 213.876C307.166 210.787 309.567 208.186 311.681 205.516C312.24 204.799 312.999 204.264 313.863 203.978C314.726 203.692 315.655 203.668 316.532 203.91C317.409 204.152 318.195 204.648 318.79 205.335C319.385 206.023 319.762 206.872 319.875 207.774C319.879 207.814 319.884 207.853 319.888 207.892C319.574 208.069 319.266 208.257 318.965 208.456C318.588 208.709 318.295 209.069 318.126 209.491C317.956 209.912 317.918 210.375 318.017 210.818C318.115 211.262 318.345 211.665 318.676 211.976C319.008 212.286 319.426 212.489 319.875 212.559L319.921 212.566C319.809 213.697 319.611 214.818 319.329 215.919C322.041 226.403 316.186 230.221 307.825 230.393C307.641 230.488 307.461 230.582 307.276 230.672C308.864 235.169 309.86 239.853 310.239 244.607C310.453 247.411 310.441 250.228 310.201 253.031L310.215 252.931C310.821 249.815 312.484 247.003 314.924 244.971C318.547 241.996 323.666 240.9 327.575 238.509C327.991 238.242 328.474 238.1 328.968 238.098C329.461 238.097 329.945 238.237 330.362 238.502C330.779 238.766 331.111 239.145 331.32 239.592C331.528 240.039 331.605 240.536 331.54 241.026L331.524 241.13C330.941 241.367 330.374 241.641 329.825 241.948C329.511 242.125 329.204 242.313 328.903 242.512C328.525 242.765 328.232 243.125 328.063 243.546C327.894 243.968 327.856 244.431 327.954 244.874C328.052 245.318 328.282 245.721 328.614 246.032C328.946 246.342 329.363 246.545 329.812 246.615L329.858 246.622C329.892 246.626 329.92 246.631 329.953 246.636C328.957 249.012 327.56 251.199 325.822 253.102C324.126 262.254 316.842 263.122 309.051 260.457H309.046C308.191 264.17 306.953 267.784 305.35 271.241H292.148C292.1 271.095 292.058 270.943 292.015 270.797C293.237 270.873 294.464 270.8 295.668 270.579C294.689 269.378 293.709 268.167 292.73 266.965C292.708 266.943 292.687 266.919 292.668 266.894C292.171 266.28 291.67 265.669 291.173 265.054L291.172 265.054C291.146 263.169 291.362 261.288 291.816 259.459L291.817 259.459Z" fill="#F2F2F2"/>
<path d="M262.551 155.575C263.571 156.65 262.026 158.046 260.837 157.125C250.92 149.441 241.004 141.761 231.087 134.086C231.075 134.074 231.062 134.064 231.047 134.057C230.362 133.593 229.711 133.083 229.097 132.529C219.868 131.557 209.725 128.339 200.116 126.943C191.631 128.084 183.171 129.443 174.661 130.452C167.24 131.384 159.768 131.868 152.289 131.9C146.198 131.871 139.638 131.834 134.114 129.231C128.371 126.526 125.176 121.203 123.704 115.734C122.978 112.943 122.504 110.092 122.288 107.216V89.3832C123.073 81.6182 125.467 73.9264 131.962 68.5085C141.709 60.378 156.3 60.166 168.773 59.9393C183.632 59.6557 198.494 60.2441 213.284 61.7014C225.336 62.9005 238.011 64.0631 249.157 68.7059C253.937 70.702 258.442 73.4731 261.734 77.224C265.439 81.4732 267.582 86.8589 267.809 92.4906C268.399 104.255 262.479 115.018 259.235 126.124C256.42 135.739 254.835 147.393 262.551 155.575Z" fill="#E92742"/>
<path d="M188.984 79.668H155.852C155.702 79.668 155.553 79.6383 155.414 79.5807C155.275 79.5232 155.148 79.4388 155.042 79.3324C154.935 79.226 154.851 79.0997 154.793 78.9607C154.736 78.8217 154.706 78.6727 154.706 78.5222C154.706 78.3718 154.736 78.2228 154.793 78.0838C154.851 77.9447 154.935 77.8184 155.042 77.712C155.148 77.6056 155.275 77.5212 155.414 77.4637C155.553 77.4061 155.702 77.3765 155.852 77.3765H188.984C189.288 77.3765 189.58 77.4972 189.794 77.712C190.009 77.9269 190.13 78.2183 190.13 78.5222C190.13 78.8261 190.009 79.1175 189.794 79.3324C189.58 79.5473 189.288 79.668 188.984 79.668Z" fill="white"/>
<path d="M188.984 104.101H155.852C155.548 104.101 155.257 103.98 155.042 103.765C154.827 103.55 154.706 103.259 154.706 102.955C154.706 102.651 154.827 102.36 155.042 102.145C155.257 101.93 155.548 101.809 155.852 101.809H188.984C189.288 101.809 189.58 101.93 189.794 102.145C190.009 102.36 190.13 102.651 190.13 102.955C190.13 103.259 190.009 103.55 189.794 103.765C189.58 103.98 189.288 104.101 188.984 104.101Z" fill="white"/>
<path d="M215.892 91.8923H155.852C155.548 91.8923 155.257 91.7716 155.042 91.5568C154.827 91.3419 154.706 91.0505 154.706 90.7466C154.706 90.4427 154.827 90.1513 155.042 89.9364C155.257 89.7215 155.548 89.6008 155.852 89.6008H215.892C216.196 89.6008 216.488 89.7215 216.703 89.9364C216.918 90.1513 217.038 90.4427 217.038 90.7466C217.038 91.0505 216.918 91.3419 216.703 91.5568C216.488 91.7716 216.196 91.8923 215.892 91.8923Z" fill="white"/>
<path d="M270.062 80.504C273.133 85.4017 274.87 91.0389 274.338 96.8495C273.879 101.863 271.821 106.578 269.572 111.022C267.241 115.627 264.631 120.098 262.725 124.906C260.632 130.146 259.858 135.82 260.472 141.429C260.849 145.071 261.584 148.663 262.277 152.255L264.391 163.218L266.228 162.149L235.839 135.889C234.774 134.969 233.212 136.516 234.285 137.443L264.674 163.703C264.848 163.866 265.07 163.969 265.308 163.996C265.545 164.023 265.785 163.973 265.991 163.853C266.197 163.733 266.359 163.549 266.453 163.33C266.547 163.11 266.567 162.866 266.511 162.634C265.269 156.193 263.801 149.748 262.891 143.25C262.368 139.973 262.295 136.64 262.673 133.344C263.045 130.831 263.706 128.369 264.642 126.008C268.287 116.488 275.114 108.16 276.43 97.8103C277.254 91.3255 275.4 84.8814 271.96 79.3951C271.21 78.1999 269.308 79.3013 270.062 80.504V80.504Z" fill="#3F3D56"/>
<path d="M237.76 126.278L192.817 131.593L170.345 134.25C163.499 135.059 156.365 136.196 149.524 134.763C138.008 132.352 130.857 121.921 128.607 110.929C127.215 104.125 127.708 97.005 128.879 90.2071C129.504 86.583 130.328 82.9966 131.219 79.4296C132.013 76.2507 132.605 72.8275 133.976 69.8352C135.071 67.402 136.7 65.2465 138.742 63.5285C140.783 61.8105 143.186 60.5741 145.771 59.9111C147.386 59.5804 149.022 59.3637 150.668 59.2627C152.516 59.0773 154.366 58.9066 156.217 58.7507C159.919 58.439 163.626 58.1865 167.337 57.9933C169.192 57.8967 171.048 57.8149 172.904 57.7479C174.315 57.6963 174.321 55.4991 172.904 55.551C165.179 55.8336 157.469 56.3688 149.773 57.1567C146.638 57.4796 143.74 57.9461 140.91 59.4139C138.464 60.6923 136.317 62.4725 134.607 64.6381C132.856 66.8722 131.571 69.4352 130.829 72.175C129.818 75.8153 128.9 79.4919 128.062 83.176C126.374 90.602 125.161 98.2562 125.724 105.891C126.558 117.182 131.967 129.23 142.463 134.605C148.661 137.78 155.734 137.922 162.526 137.316C170.101 136.64 177.654 135.582 185.205 134.69L231.961 129.161L237.76 128.475C239.148 128.311 239.164 126.112 237.76 126.278H237.76Z" fill="#3F3D56"/>
</g>
<defs>
<clipPath id="clip0_1_167">
<rect width="332" height="222" fill="white"/>
</clipPath>
</defs>
</svg>
